<svg width="57" height="57" viewBox="0 0 57 57" fill="none" xmlns="http://www.w3.org/2000/svg">
<path d="M15.094 51.5995L1.73205 28.4559L15.094 5.31237H41.8179L55.1798 28.4559L41.8179 51.5995H15.094Z" fill="black" stroke="url(#paint0_linear_481_468)" stroke-width="3"/>
<path d="M44.0698 34.7903V38.3786H29.9587V34.7903H44.0698ZM43.9761 21.4207L32.2883 38.3786H28.8877V35.92L40.7094 19.0286H43.9761V21.4207ZM42.4633 19.0286V22.6301H28.8207V19.0286H42.4633Z" fill="url(#paint1_linear_481_468)"/>
<path d="M29.0483 19.0286V38.3786H24.3625L17.4676 26.338V38.3786H12.7683V19.0286H17.4676L24.3625 31.0692V19.0286H29.0483Z" fill="url(#paint2_linear_481_468)"/>
<defs>
<linearGradient id="paint0_linear_481_468" x1="48.9074" y1="40.9396" x2="7.64628" y2="16.1829" gradientUnits="userSpaceOnUse">
<stop stop-color="#FF007F"/>
<stop offset="1" stop-color="#007BFF"/>
</linearGradient>
<linearGradient id="paint1_linear_481_468" x1="12.7817" y1="19.2412" x2="43.8218" y2="38.5833" gradientUnits="userSpaceOnUse">
<stop stop-color="#007BFF"/>
<stop offset="1" stop-color="#5E00A0"/>
</linearGradient>
<linearGradient id="paint2_linear_481_468" x1="12.7817" y1="19.2412" x2="43.8218" y2="38.5833" gradientUnits="userSpaceOnUse">
<stop stop-color="#007BFF"/>
<stop offset="1" stop-color="#5E00A0"/>
</linearGradient>
</defs>
</svg>
